<svg width="45" height="45" viewBox="0 0 45 45" fill="none" xmlns="http://www.w3.org/2000/svg">
<g id="ring-1">
<path id="top-left" d="M1 13.3309V6.73334C1 3.5669 3.5669 1 6.73333 1H13.1037" stroke="#140B0C" stroke-width="2" stroke-linecap="round"/>
<path id="bottom-left" d="M1 31.6697V38.2672C1 41.4336 3.5669 44.0005 6.73333 44.0005H13.1037" stroke="#140B0C" stroke-width="2" stroke-linecap="round"/>
<path id="top-right" d="M43.9998 13.331V6.73352C43.9998 3.56709 41.4329 1.00018 38.2664 1.00018H31.8961" stroke="#140B0C" stroke-width="2" stroke-linecap="round"/>
<path id="bottom-right" d="M43.9998 31.6697V38.2672C43.9998 41.4336 41.4329 44.0005 38.2664 44.0005H31.8961" stroke="#140B0C" stroke-width="2" stroke-linecap="round"/>
<g id="path170">
<mask id="path-5-outside-1_12_10011" maskUnits="userSpaceOnUse" x="11" y="6" width="23" height="34" fill="black">
<rect fill="white" x="11" y="6" width="23" height="34"/>
<path d="M33.2589 36.4657C32.8795 36.5032 32.5279 36.6331 32.2238 36.8298C32.212 36.7379 32.1968 36.6313 32.1778 36.5119V19.9227C32.1968 19.8033 32.212 19.6968 32.2238 19.6048C32.5279 19.8016 32.8795 19.9314 33.2589 19.969V36.4657ZM31.7115 19.8729C31.5768 20.6982 31.247 22.1542 30.4712 23.6009C29.152 26.0614 27.1387 27.4962 24.4738 27.8806C27.3561 26.5494 28.5099 24.4892 28.9631 22.8913C29.4 21.3507 29.2784 20.0004 29.1931 19.4335H31.7115V19.8729ZM31.5903 28.2249C29.8937 29.3464 27.9359 28.5934 27.1586 28.2093C29.2437 27.0735 30.9561 27.8451 31.5903 28.2249ZM31.7115 27.7631C31.4279 27.607 31.0143 27.4181 30.4982 27.2927C29.5779 27.069 28.1486 27.0143 26.5635 28.0224L26.2581 28.2167L26.563 28.4118C26.5943 28.432 27.3435 28.9062 28.4015 29.1472C28.7987 29.2379 29.1855 29.2826 29.5597 29.2826C30.3432 29.2826 31.0699 29.0856 31.7115 28.697V34.5777C31.513 33.9638 31.2452 33.2919 30.8829 32.6162C29.9555 30.8865 28.2473 28.8858 25.1855 28.2173C28.2473 27.5489 29.9555 25.5481 30.8829 23.8184C31.2452 23.1428 31.513 22.4708 31.7115 21.8569V27.7631ZM31.7115 37.0011H29.1931C29.2784 36.4342 29.4 35.084 28.9631 33.5434C28.5099 31.9454 27.3561 29.8852 24.4738 28.5541C27.1338 28.9378 29.1447 30.3681 30.4641 32.8206C31.2445 34.2709 31.5762 35.7364 31.7115 36.5645V37.0011ZM31.1721 38.5371H14.5531C14.5133 38.1417 14.3719 37.7759 14.1565 37.464H31.5687C31.3534 37.7759 31.2119 38.1417 31.1721 38.5371ZM14.0136 37.0011V36.8001C14.1202 36.0426 14.4329 34.4327 15.2902 32.8338C16.6093 30.3732 18.6227 28.9384 21.2877 28.5541C18.4054 29.8852 17.2515 31.9454 16.7984 33.5434C16.3615 35.084 16.483 36.4342 16.5683 37.0011H14.0136ZM14.1008 28.2262C14.3495 28.0797 14.7649 27.8728 15.3017 27.7424C16.3916 27.4773 17.4764 27.6345 18.5304 28.2093C17.7533 28.5933 15.7965 29.3457 14.1008 28.2262ZM14.0136 28.7179C14.6465 29.0923 15.3603 29.2826 16.1292 29.2826C16.5033 29.2826 16.8904 29.2379 17.2873 29.1472C18.3454 28.9062 19.0945 28.432 19.1259 28.4118L19.4309 28.2167L19.1254 28.0224C16.8548 26.5785 14.8786 27.2885 14.0136 27.7483V21.7437C14.2153 22.3875 14.4939 23.101 14.8785 23.8184C15.8058 25.5481 17.5141 27.5489 20.5759 28.2173C17.5141 28.8858 15.8058 30.8865 14.8785 32.6162C14.4939 33.3336 14.2153 34.0471 14.0136 34.691V28.7179ZM14.0136 19.4335H16.5683C16.483 20.0004 16.3615 21.3507 16.7984 22.8913C17.2515 24.4892 18.4053 26.5494 21.2876 27.8806C18.6276 27.4969 16.6166 26.0665 15.2972 23.6141C14.4352 22.0119 14.1207 20.3914 14.0136 19.632V19.4335ZM23.163 27.904C23.1123 26.8424 23.0892 23.1324 25.0404 21.0014C25.9547 20.0029 27.1922 19.4767 28.7209 19.436C28.7967 19.911 28.9436 21.2521 28.5142 22.7659C27.8641 25.058 26.2378 26.7208 23.6757 27.7174C24.6908 27.096 26.9157 25.0869 27.5586 21.3537C27.5586 21.3537 23.6661 22.5074 23.163 27.904ZM25.0404 35.4333C23.0892 33.3022 23.1123 29.5922 23.163 28.5306C23.6661 33.9271 27.5586 35.0809 27.5586 35.0809C26.9157 31.3476 24.6906 29.3385 23.6756 28.7171C26.2306 29.711 27.8551 31.3675 28.509 33.6503C28.9435 35.1673 28.7963 36.5207 28.7207 36.9986C27.192 36.9577 25.9546 36.4318 25.0404 35.4333ZM21.0672 35.7434C22.1518 34.558 22.6517 32.9415 22.8807 31.6114C23.1099 32.9415 23.6096 34.558 24.6943 35.7434C25.1992 36.2951 25.7925 36.7142 26.4681 37.0011H19.2932C19.9689 36.7142 20.5623 36.2951 21.0672 35.7434ZM22.5984 28.5306C22.5985 28.5306 22.5985 28.5306 22.5987 28.5304C22.6497 29.5916 22.6742 33.2986 20.722 35.4322C19.8076 36.4314 18.5697 36.9579 17.0405 36.9987C16.9647 36.5237 16.8179 35.1826 17.2472 33.6688C17.8973 31.3765 19.5235 29.7139 22.0857 28.7172C21.0708 29.3386 18.8457 31.3477 18.2028 35.0809C18.2028 35.0809 22.0954 33.9271 22.5984 28.5306ZM19.2932 19.4335H26.4681C25.7925 19.7205 25.1992 20.1395 24.6943 20.6914C23.6096 21.8766 23.1099 23.4931 22.8807 24.8233C22.6517 23.4931 22.1518 21.8766 21.0672 20.6914C20.5623 20.1395 19.9689 19.7205 19.2932 19.4335ZM20.721 21.0014C22.6722 23.1324 22.6491 26.8424 22.5984 27.904C22.0954 22.5074 18.2028 21.3537 18.2028 21.3537C18.8457 25.0872 21.0709 27.0962 22.0858 27.7175C19.5309 26.7236 17.9064 25.0671 17.2525 22.7843C16.818 21.2674 16.9651 19.9141 17.0408 19.436C18.5693 19.4769 19.8068 20.0029 20.721 21.0014ZM14.5531 17.8975H31.1721C31.2119 18.2929 31.3535 18.6587 31.5687 18.9706H14.1565C14.3718 18.6587 14.5133 18.2929 14.5531 17.8975ZM13.5472 36.7567C13.5428 36.7898 13.5386 36.8214 13.5348 36.8514C13.2234 36.6423 12.8595 36.5045 12.4663 36.4657V19.969C12.8595 19.93 13.2234 19.7923 13.5348 19.5833C13.5386 19.6132 13.5428 19.6448 13.5472 19.6779V36.7567ZM33.492 19.5176C32.9798 19.5176 32.5152 19.3114 32.1778 18.9783V18.9706H32.17C31.8346 18.6356 31.6268 18.1745 31.6268 17.6661V17.4346H14.0984V17.6661C14.0984 18.1745 13.8907 18.6356 13.5552 18.9706H13.5472V18.9784C13.2099 19.3114 12.7454 19.5176 12.2332 19.5176H12V36.917H12.2332C12.7454 36.917 13.2099 37.1232 13.5472 37.4562V37.464H13.5553C13.8907 37.799 14.0984 38.2601 14.0984 38.7686V39H31.6268V38.7686C31.6268 38.2601 31.8346 37.799 32.17 37.464H32.1778V37.4563C32.5152 37.1232 32.9798 36.917 33.492 36.917H33.7252V19.5176H33.492ZM19.8813 9.33514L20.5809 16.0358H20.0199L19.4354 9.33514H19.8813ZM25.3751 9.33514L24.6754 16.0358H21.0497L20.3501 9.33514H25.3751ZM20.6428 8.71094C20.9597 8.36794 21.1427 7.92346 21.1623 7.46288H24.5629C24.5825 7.92346 24.7654 8.36794 25.0824 8.71094C25.1359 8.76869 25.1935 8.82169 25.253 8.87226H20.4721C20.5317 8.82169 20.5893 8.76869 20.6428 8.71094ZM25.844 9.33514H26.2898L25.7053 16.0358H25.1442L25.844 9.33514ZM26.1329 16.4987L26.7971 8.88557H26.5429V8.87226H26.3491C25.995 8.82805 25.6721 8.66442 25.4259 8.39803C25.1355 8.08362 24.9959 7.67639 25.0329 7.25135L25.0549 7H20.6702L20.6921 7.25135C20.7292 7.67639 20.5897 8.08362 20.2991 8.39803C20.053 8.66442 19.7302 8.82805 19.3761 8.87226H19.2134V8.88406C19.2029 8.88418 19.1928 8.88557 19.1822 8.88557H18.9281L19.5923 16.4987H26.1329Z"/>
</mask>
<path d="M33.2589 36.4657C32.8795 36.5032 32.5279 36.6331 32.2238 36.8298C32.212 36.7379 32.1968 36.6313 32.1778 36.5119V19.9227C32.1968 19.8033 32.212 19.6968 32.2238 19.6048C32.5279 19.8016 32.8795 19.9314 33.2589 19.969V36.4657ZM31.7115 19.8729C31.5768 20.6982 31.247 22.1542 30.4712 23.6009C29.152 26.0614 27.1387 27.4962 24.4738 27.8806C27.3561 26.5494 28.5099 24.4892 28.9631 22.8913C29.4 21.3507 29.2784 20.0004 29.1931 19.4335H31.7115V19.8729ZM31.5903 28.2249C29.8937 29.3464 27.9359 28.5934 27.1586 28.2093C29.2437 27.0735 30.9561 27.8451 31.5903 28.2249ZM31.7115 27.7631C31.4279 27.607 31.0143 27.4181 30.4982 27.2927C29.5779 27.069 28.1486 27.0143 26.5635 28.0224L26.2581 28.2167L26.563 28.4118C26.5943 28.432 27.3435 28.9062 28.4015 29.1472C28.7987 29.2379 29.1855 29.2826 29.5597 29.2826C30.3432 29.2826 31.0699 29.0856 31.7115 28.697V34.5777C31.513 33.9638 31.2452 33.2919 30.8829 32.6162C29.9555 30.8865 28.2473 28.8858 25.1855 28.2173C28.2473 27.5489 29.9555 25.5481 30.8829 23.8184C31.2452 23.1428 31.513 22.4708 31.7115 21.8569V27.7631ZM31.7115 37.0011H29.1931C29.2784 36.4342 29.4 35.084 28.9631 33.5434C28.5099 31.9454 27.3561 29.8852 24.4738 28.5541C27.1338 28.9378 29.1447 30.3681 30.4641 32.8206C31.2445 34.2709 31.5762 35.7364 31.7115 36.5645V37.0011ZM31.1721 38.5371H14.5531C14.5133 38.1417 14.3719 37.7759 14.1565 37.464H31.5687C31.3534 37.7759 31.2119 38.1417 31.1721 38.5371ZM14.0136 37.0011V36.8001C14.1202 36.0426 14.4329 34.4327 15.2902 32.8338C16.6093 30.3732 18.6227 28.9384 21.2877 28.5541C18.4054 29.8852 17.2515 31.9454 16.7984 33.5434C16.3615 35.084 16.483 36.4342 16.5683 37.0011H14.0136ZM14.1008 28.2262C14.3495 28.0797 14.7649 27.8728 15.3017 27.7424C16.3916 27.4773 17.4764 27.6345 18.5304 28.2093C17.7533 28.5933 15.7965 29.3457 14.1008 28.2262ZM14.0136 28.7179C14.6465 29.0923 15.3603 29.2826 16.1292 29.2826C16.5033 29.2826 16.8904 29.2379 17.2873 29.1472C18.3454 28.9062 19.0945 28.432 19.1259 28.4118L19.4309 28.2167L19.1254 28.0224C16.8548 26.5785 14.8786 27.2885 14.0136 27.7483V21.7437C14.2153 22.3875 14.4939 23.101 14.8785 23.8184C15.8058 25.5481 17.5141 27.5489 20.5759 28.2173C17.5141 28.8858 15.8058 30.8865 14.8785 32.6162C14.4939 33.3336 14.2153 34.0471 14.0136 34.691V28.7179ZM14.0136 19.4335H16.5683C16.483 20.0004 16.3615 21.3507 16.7984 22.8913C17.2515 24.4892 18.4053 26.5494 21.2876 27.8806C18.6276 27.4969 16.6166 26.0665 15.2972 23.6141C14.4352 22.0119 14.1207 20.3914 14.0136 19.632V19.4335ZM23.163 27.904C23.1123 26.8424 23.0892 23.1324 25.0404 21.0014C25.9547 20.0029 27.1922 19.4767 28.7209 19.436C28.7967 19.911 28.9436 21.2521 28.5142 22.7659C27.8641 25.058 26.2378 26.7208 23.6757 27.7174C24.6908 27.096 26.9157 25.0869 27.5586 21.3537C27.5586 21.3537 23.6661 22.5074 23.163 27.904ZM25.0404 35.4333C23.0892 33.3022 23.1123 29.5922 23.163 28.5306C23.6661 33.9271 27.5586 35.0809 27.5586 35.0809C26.9157 31.3476 24.6906 29.3385 23.6756 28.7171C26.2306 29.711 27.8551 31.3675 28.509 33.6503C28.9435 35.1673 28.7963 36.5207 28.7207 36.9986C27.192 36.9577 25.9546 36.4318 25.0404 35.4333ZM21.0672 35.7434C22.1518 34.558 22.6517 32.9415 22.8807 31.6114C23.1099 32.9415 23.6096 34.558 24.6943 35.7434C25.1992 36.2951 25.7925 36.7142 26.4681 37.0011H19.2932C19.9689 36.7142 20.5623 36.2951 21.0672 35.7434ZM22.5984 28.5306C22.5985 28.5306 22.5985 28.5306 22.5987 28.5304C22.6497 29.5916 22.6742 33.2986 20.722 35.4322C19.8076 36.4314 18.5697 36.9579 17.0405 36.9987C16.9647 36.5237 16.8179 35.1826 17.2472 33.6688C17.8973 31.3765 19.5235 29.7139 22.0857 28.7172C21.0708 29.3386 18.8457 31.3477 18.2028 35.0809C18.2028 35.0809 22.0954 33.9271 22.5984 28.5306ZM19.2932 19.4335H26.4681C25.7925 19.7205 25.1992 20.1395 24.6943 20.6914C23.6096 21.8766 23.1099 23.4931 22.8807 24.8233C22.6517 23.4931 22.1518 21.8766 21.0672 20.6914C20.5623 20.1395 19.9689 19.7205 19.2932 19.4335ZM20.721 21.0014C22.6722 23.1324 22.6491 26.8424 22.5984 27.904C22.0954 22.5074 18.2028 21.3537 18.2028 21.3537C18.8457 25.0872 21.0709 27.0962 22.0858 27.7175C19.5309 26.7236 17.9064 25.0671 17.2525 22.7843C16.818 21.2674 16.9651 19.9141 17.0408 19.436C18.5693 19.4769 19.8068 20.0029 20.721 21.0014ZM14.5531 17.8975H31.1721C31.2119 18.2929 31.3535 18.6587 31.5687 18.9706H14.1565C14.3718 18.6587 14.5133 18.2929 14.5531 17.8975ZM13.5472 36.7567C13.5428 36.7898 13.5386 36.8214 13.5348 36.8514C13.2234 36.6423 12.8595 36.5045 12.4663 36.4657V19.969C12.8595 19.93 13.2234 19.7923 13.5348 19.5833C13.5386 19.6132 13.5428 19.6448 13.5472 19.6779V36.7567ZM33.492 19.5176C32.9798 19.5176 32.5152 19.3114 32.1778 18.9783V18.9706H32.17C31.8346 18.6356 31.6268 18.1745 31.6268 17.6661V17.4346H14.0984V17.6661C14.0984 18.1745 13.8907 18.6356 13.5552 18.9706H13.5472V18.9784C13.2099 19.3114 12.7454 19.5176 12.2332 19.5176H12V36.917H12.2332C12.7454 36.917 13.2099 37.1232 13.5472 37.4562V37.464H13.5553C13.8907 37.799 14.0984 38.2601 14.0984 38.7686V39H31.6268V38.7686C31.6268 38.2601 31.8346 37.799 32.17 37.464H32.1778V37.4563C32.5152 37.1232 32.9798 36.917 33.492 36.917H33.7252V19.5176H33.492ZM19.8813 9.33514L20.5809 16.0358H20.0199L19.4354 9.33514H19.8813ZM25.3751 9.33514L24.6754 16.0358H21.0497L20.3501 9.33514H25.3751ZM20.6428 8.71094C20.9597 8.36794 21.1427 7.92346 21.1623 7.46288H24.5629C24.5825 7.92346 24.7654 8.36794 25.0824 8.71094C25.1359 8.76869 25.1935 8.82169 25.253 8.87226H20.4721C20.5317 8.82169 20.5893 8.76869 20.6428 8.71094ZM25.844 9.33514H26.2898L25.7053 16.0358H25.1442L25.844 9.33514ZM26.1329 16.4987L26.7971 8.88557H26.5429V8.87226H26.3491C25.995 8.82805 25.6721 8.66442 25.4259 8.39803C25.1355 8.08362 24.9959 7.67639 25.0329 7.25135L25.0549 7H20.6702L20.6921 7.25135C20.7292 7.67639 20.5897 8.08362 20.2991 8.39803C20.053 8.66442 19.7302 8.82805 19.3761 8.87226H19.2134V8.88406C19.2029 8.88418 19.1928 8.88557 19.1822 8.88557H18.9281L19.5923 16.4987H26.1329Z" fill="#140B0C"/>
<path d="M33.2589 36.4657C32.8795 36.5032 32.5279 36.6331 32.2238 36.8298C32.212 36.7379 32.1968 36.6313 32.1778 36.5119V19.9227C32.1968 19.8033 32.212 19.6968 32.2238 19.6048C32.5279 19.8016 32.8795 19.9314 33.2589 19.969V36.4657ZM31.7115 19.8729C31.5768 20.6982 31.247 22.1542 30.4712 23.6009C29.152 26.0614 27.1387 27.4962 24.4738 27.8806C27.3561 26.5494 28.5099 24.4892 28.9631 22.8913C29.4 21.3507 29.2784 20.0004 29.1931 19.4335H31.7115V19.8729ZM31.5903 28.2249C29.8937 29.3464 27.9359 28.5934 27.1586 28.2093C29.2437 27.0735 30.9561 27.8451 31.5903 28.2249ZM31.7115 27.7631C31.4279 27.607 31.0143 27.4181 30.4982 27.2927C29.5779 27.069 28.1486 27.0143 26.5635 28.0224L26.2581 28.2167L26.563 28.4118C26.5943 28.432 27.3435 28.9062 28.4015 29.1472C28.7987 29.2379 29.1855 29.2826 29.5597 29.2826C30.3432 29.2826 31.0699 29.0856 31.7115 28.697V34.5777C31.513 33.9638 31.2452 33.2919 30.8829 32.6162C29.9555 30.8865 28.2473 28.8858 25.1855 28.2173C28.2473 27.5489 29.9555 25.5481 30.8829 23.8184C31.2452 23.1428 31.513 22.4708 31.7115 21.8569V27.7631ZM31.7115 37.0011H29.1931C29.2784 36.4342 29.4 35.084 28.9631 33.5434C28.5099 31.9454 27.3561 29.8852 24.4738 28.5541C27.1338 28.9378 29.1447 30.3681 30.4641 32.8206C31.2445 34.2709 31.5762 35.7364 31.7115 36.5645V37.0011ZM31.1721 38.5371H14.5531C14.5133 38.1417 14.3719 37.7759 14.1565 37.464H31.5687C31.3534 37.7759 31.2119 38.1417 31.1721 38.5371ZM14.0136 37.0011V36.8001C14.1202 36.0426 14.4329 34.4327 15.2902 32.8338C16.6093 30.3732 18.6227 28.9384 21.2877 28.5541C18.4054 29.8852 17.2515 31.9454 16.7984 33.5434C16.3615 35.084 16.483 36.4342 16.5683 37.0011H14.0136ZM14.1008 28.2262C14.3495 28.0797 14.7649 27.8728 15.3017 27.7424C16.3916 27.4773 17.4764 27.6345 18.5304 28.2093C17.7533 28.5933 15.7965 29.3457 14.1008 28.2262ZM14.0136 28.7179C14.6465 29.0923 15.3603 29.2826 16.1292 29.2826C16.5033 29.2826 16.8904 29.2379 17.2873 29.1472C18.3454 28.9062 19.0945 28.432 19.1259 28.4118L19.4309 28.2167L19.1254 28.0224C16.8548 26.5785 14.8786 27.2885 14.0136 27.7483V21.7437C14.2153 22.3875 14.4939 23.101 14.8785 23.8184C15.8058 25.5481 17.5141 27.5489 20.5759 28.2173C17.5141 28.8858 15.8058 30.8865 14.8785 32.6162C14.4939 33.3336 14.2153 34.0471 14.0136 34.691V28.7179ZM14.0136 19.4335H16.5683C16.483 20.0004 16.3615 21.3507 16.7984 22.8913C17.2515 24.4892 18.4053 26.5494 21.2876 27.8806C18.6276 27.4969 16.6166 26.0665 15.2972 23.6141C14.4352 22.0119 14.1207 20.3914 14.0136 19.632V19.4335ZM23.163 27.904C23.1123 26.8424 23.0892 23.1324 25.0404 21.0014C25.9547 20.0029 27.1922 19.4767 28.7209 19.436C28.7967 19.911 28.9436 21.2521 28.5142 22.7659C27.8641 25.058 26.2378 26.7208 23.6757 27.7174C24.6908 27.096 26.9157 25.0869 27.5586 21.3537C27.5586 21.3537 23.6661 22.5074 23.163 27.904ZM25.0404 35.4333C23.0892 33.3022 23.1123 29.5922 23.163 28.5306C23.6661 33.9271 27.5586 35.0809 27.5586 35.0809C26.9157 31.3476 24.6906 29.3385 23.6756 28.7171C26.2306 29.711 27.8551 31.3675 28.509 33.6503C28.9435 35.1673 28.7963 36.5207 28.7207 36.9986C27.192 36.9577 25.9546 36.4318 25.0404 35.4333ZM21.0672 35.7434C22.1518 34.558 22.6517 32.9415 22.8807 31.6114C23.1099 32.9415 23.6096 34.558 24.6943 35.7434C25.1992 36.2951 25.7925 36.7142 26.4681 37.0011H19.2932C19.9689 36.7142 20.5623 36.2951 21.0672 35.7434ZM22.5984 28.5306C22.5985 28.5306 22.5985 28.5306 22.5987 28.5304C22.6497 29.5916 22.6742 33.2986 20.722 35.4322C19.8076 36.4314 18.5697 36.9579 17.0405 36.9987C16.9647 36.5237 16.8179 35.1826 17.2472 33.6688C17.8973 31.3765 19.5235 29.7139 22.0857 28.7172C21.0708 29.3386 18.8457 31.3477 18.2028 35.0809C18.2028 35.0809 22.0954 33.9271 22.5984 28.5306ZM19.2932 19.4335H26.4681C25.7925 19.7205 25.1992 20.1395 24.6943 20.6914C23.6096 21.8766 23.1099 23.4931 22.8807 24.8233C22.6517 23.4931 22.1518 21.8766 21.0672 20.6914C20.5623 20.1395 19.9689 19.7205 19.2932 19.4335ZM20.721 21.0014C22.6722 23.1324 22.6491 26.8424 22.5984 27.904C22.0954 22.5074 18.2028 21.3537 18.2028 21.3537C18.8457 25.0872 21.0709 27.0962 22.0858 27.7175C19.5309 26.7236 17.9064 25.0671 17.2525 22.7843C16.818 21.2674 16.9651 19.9141 17.0408 19.436C18.5693 19.4769 19.8068 20.0029 20.721 21.0014ZM14.5531 17.8975H31.1721C31.2119 18.2929 31.3535 18.6587 31.5687 18.9706H14.1565C14.3718 18.6587 14.5133 18.2929 14.5531 17.8975ZM13.5472 36.7567C13.5428 36.7898 13.5386 36.8214 13.5348 36.8514C13.2234 36.6423 12.8595 36.5045 12.4663 36.4657V19.969C12.8595 19.93 13.2234 19.7923 13.5348 19.5833C13.5386 19.6132 13.5428 19.6448 13.5472 19.6779V36.7567ZM33.492 19.5176C32.9798 19.5176 32.5152 19.3114 32.1778 18.9783V18.9706H32.17C31.8346 18.6356 31.6268 18.1745 31.6268 17.6661V17.4346H14.0984V17.6661C14.0984 18.1745 13.8907 18.6356 13.5552 18.9706H13.5472V18.9784C13.2099 19.3114 12.7454 19.5176 12.2332 19.5176H12V36.917H12.2332C12.7454 36.917 13.2099 37.1232 13.5472 37.4562V37.464H13.5553C13.8907 37.799 14.0984 38.2601 14.0984 38.7686V39H31.6268V38.7686C31.6268 38.2601 31.8346 37.799 32.17 37.464H32.1778V37.4563C32.5152 37.1232 32.9798 36.917 33.492 36.917H33.7252V19.5176H33.492ZM19.8813 9.33514L20.5809 16.0358H20.0199L19.4354 9.33514H19.8813ZM25.3751 9.33514L24.6754 16.0358H21.0497L20.3501 9.33514H25.3751ZM20.6428 8.71094C20.9597 8.36794 21.1427 7.92346 21.1623 7.46288H24.5629C24.5825 7.92346 24.7654 8.36794 25.0824 8.71094C25.1359 8.76869 25.1935 8.82169 25.253 8.87226H20.4721C20.5317 8.82169 20.5893 8.76869 20.6428 8.71094ZM25.844 9.33514H26.2898L25.7053 16.0358H25.1442L25.844 9.33514ZM26.1329 16.4987L26.7971 8.88557H26.5429V8.87226H26.3491C25.995 8.82805 25.6721 8.66442 25.4259 8.39803C25.1355 8.08362 24.9959 7.67639 25.0329 7.25135L25.0549 7H20.6702L20.6921 7.25135C20.7292 7.67639 20.5897 8.08362 20.2991 8.39803C20.053 8.66442 19.7302 8.82805 19.3761 8.87226H19.2134V8.88406C19.2029 8.88418 19.1928 8.88557 19.1822 8.88557H18.9281L19.5923 16.4987H26.1329Z" stroke="#140B0C" stroke-width="0.281898" mask="url(#path-5-outside-1_12_10011)"/>
</g>
</g>
</svg>
